<mxfile host="65bd71144e">
    <diagram name="上り通信" id="DmBdzgVS1BHwALY6w6nI">
        <mxGraphModel dx="992" dy="740" grid="1" gridSize="10" guides="1" tooltips="1" connect="1" arrows="1" fold="1" page="1" pageScale="1" pageWidth="1169" pageHeight="827" background="#FFFFFF" math="0" shadow="0">
            <root>
                <mxCell id="BCFTEfsaZ7yOC3XTp4j1-0"/>
                <mxCell id="BCFTEfsaZ7yOC3XTp4j1-1" parent="BCFTEfsaZ7yOC3XTp4j1-0"/>
                <mxCell id="BCFTEfsaZ7yOC3XTp4j1-2" value="Availability Zone" style="fillColor=none;strokeColor=#147EBA;dashed=1;verticalAlign=top;fontStyle=0;fontColor=#147EBA;" parent="BCFTEfsaZ7yOC3XTp4j1-1" vertex="1">
                    <mxGeometry x="420" y="370" width="500" height="120" as="geometry"/>
                </mxCell>
                <mxCell id="BCFTEfsaZ7yOC3XTp4j1-3" value="Availability Zone" style="fillColor=none;strokeColor=#147EBA;dashed=1;verticalAlign=top;fontStyle=0;fontColor=#147EBA;" parent="BCFTEfsaZ7yOC3XTp4j1-1" vertex="1">
                    <mxGeometry x="420" y="240" width="500" height="120" as="geometry"/>
                </mxCell>
                <mxCell id="BCFTEfsaZ7yOC3XTp4j1-4" value="Availability Zone" style="fillColor=none;strokeColor=#147EBA;dashed=1;verticalAlign=top;fontStyle=0;fontColor=#147EBA;" parent="BCFTEfsaZ7yOC3XTp4j1-1" vertex="1">
                    <mxGeometry x="420" y="110" width="500" height="120" as="geometry"/>
                </mxCell>
                <mxCell id="BCFTEfsaZ7yOC3XTp4j1-5" value="Bridge VPC" style="points=[[0,0],[0.25,0],[0.5,0],[0.75,0],[1,0],[1,0.25],[1,0.5],[1,0.75],[1,1],[0.75,1],[0.5,1],[0.25,1],[0,1],[0,0.75],[0,0.5],[0,0.25]];outlineConnect=0;gradientColor=none;html=1;whiteSpace=wrap;fontSize=12;fontStyle=0;container=0;pointerEvents=0;collapsible=0;recursiveResize=0;shape=mxgraph.aws4.group;grIcon=mxgraph.aws4.group_vpc;strokeColor=#248814;fillColor=none;verticalAlign=top;align=left;spacingLeft=30;fontColor=#AAB7B8;dashed=0;" parent="BCFTEfsaZ7yOC3XTp4j1-1" vertex="1">
                    <mxGeometry x="390" y="80" width="260" height="440" as="geometry"/>
                </mxCell>
                <mxCell id="BCFTEfsaZ7yOC3XTp4j1-7" value="Corporate data center" style="points=[[0,0],[0.25,0],[0.5,0],[0.75,0],[1,0],[1,0.25],[1,0.5],[1,0.75],[1,1],[0.75,1],[0.5,1],[0.25,1],[0,1],[0,0.75],[0,0.5],[0,0.25]];outlineConnect=0;gradientColor=none;html=1;whiteSpace=wrap;fontSize=12;fontStyle=0;container=1;pointerEvents=0;collapsible=0;recursiveResize=0;shape=mxgraph.aws4.group;grIcon=mxgraph.aws4.group_corporate_data_center;strokeColor=#5A6C86;fillColor=none;verticalAlign=top;align=left;spacingLeft=30;fontColor=#5A6C86;dashed=0;" parent="BCFTEfsaZ7yOC3XTp4j1-1" vertex="1">
                    <mxGeometry x="160" y="80" width="191" height="440" as="geometry"/>
                </mxCell>
                <mxCell id="gFsK34k69OLk71-0nfJo-2" value="On-premise" style="sketch=0;outlineConnect=0;fontColor=#232F3E;gradientColor=none;fillColor=#232F3D;strokeColor=none;dashed=0;verticalLabelPosition=bottom;verticalAlign=top;align=center;html=1;fontSize=12;fontStyle=0;aspect=fixed;pointerEvents=1;shape=mxgraph.aws4.traditional_server;" parent="BCFTEfsaZ7yOC3XTp4j1-7" vertex="1">
                    <mxGeometry x="34.580000000000005" y="213" width="21.92" height="38" as="geometry"/>
                </mxCell>
                <mxCell id="gFsK34k69OLk71-0nfJo-4" value="FIrewall" style="sketch=0;outlineConnect=0;fontColor=#232F3E;gradientColor=none;fillColor=#232F3D;strokeColor=none;dashed=0;verticalLabelPosition=bottom;verticalAlign=top;align=center;html=1;fontSize=12;fontStyle=0;aspect=fixed;pointerEvents=1;shape=mxgraph.aws4.generic_firewall;labelBackgroundColor=default;" parent="BCFTEfsaZ7yOC3XTp4j1-7" vertex="1">
                    <mxGeometry x="110" y="217" width="35.45" height="30" as="geometry"/>
                </mxCell>
                <mxCell id="gFsK34k69OLk71-0nfJo-5" value="" style="edgeStyle=orthogonalEdgeStyle;html=1;endArrow=none;" parent="BCFTEfsaZ7yOC3XTp4j1-7" source="gFsK34k69OLk71-0nfJo-2" target="gFsK34k69OLk71-0nfJo-4" edge="1">
                    <mxGeometry relative="1" as="geometry">
                        <mxPoint x="56.5" y="232" as="sourcePoint"/>
                        <mxPoint x="330" y="232" as="targetPoint"/>
                    </mxGeometry>
                </mxCell>
                <mxCell id="BCFTEfsaZ7yOC3XTp4j1-8" value="Private subnet" style="points=[[0,0],[0.25,0],[0.5,0],[0.75,0],[1,0],[1,0.25],[1,0.5],[1,0.75],[1,1],[0.75,1],[0.5,1],[0.25,1],[0,1],[0,0.75],[0,0.5],[0,0.25]];outlineConnect=0;gradientColor=none;html=1;whiteSpace=wrap;fontSize=12;fontStyle=0;container=1;pointerEvents=0;collapsible=0;recursiveResize=0;shape=mxgraph.aws4.group;grIcon=mxgraph.aws4.group_security_group;grStroke=0;strokeColor=#147EBA;fillColor=#E6F2F8;verticalAlign=top;align=left;spacingLeft=30;fontColor=#147EBA;dashed=0;" parent="BCFTEfsaZ7yOC3XTp4j1-1" vertex="1">
                    <mxGeometry x="430" y="140" width="180" height="80" as="geometry"/>
                </mxCell>
                <mxCell id="2" value="ENI" style="sketch=0;outlineConnect=0;fontColor=#232F3E;gradientColor=none;fillColor=#4D27AA;strokeColor=none;dashed=0;verticalLabelPosition=bottom;verticalAlign=top;align=center;html=1;fontSize=12;fontStyle=0;aspect=fixed;pointerEvents=1;shape=mxgraph.aws4.elastic_network_interface;" parent="BCFTEfsaZ7yOC3XTp4j1-8" vertex="1">
                    <mxGeometry x="140" y="25" width="30" height="30" as="geometry"/>
                </mxCell>
                <mxCell id="BCFTEfsaZ7yOC3XTp4j1-10" value="Private subnet" style="points=[[0,0],[0.25,0],[0.5,0],[0.75,0],[1,0],[1,0.25],[1,0.5],[1,0.75],[1,1],[0.75,1],[0.5,1],[0.25,1],[0,1],[0,0.75],[0,0.5],[0,0.25]];outlineConnect=0;gradientColor=none;html=1;whiteSpace=wrap;fontSize=12;fontStyle=0;container=1;pointerEvents=0;collapsible=0;recursiveResize=0;shape=mxgraph.aws4.group;grIcon=mxgraph.aws4.group_security_group;grStroke=0;strokeColor=#147EBA;fillColor=#E6F2F8;verticalAlign=top;align=left;spacingLeft=30;fontColor=#147EBA;dashed=0;" parent="BCFTEfsaZ7yOC3XTp4j1-1" vertex="1">
                    <mxGeometry x="430" y="270" width="180" height="80" as="geometry"/>
                </mxCell>
                <mxCell id="BCFTEfsaZ7yOC3XTp4j1-11" value="VPC Endpoint" style="sketch=0;outlineConnect=0;fontColor=#232F3E;gradientColor=none;fillColor=#4D27AA;strokeColor=none;dashed=0;verticalLabelPosition=bottom;verticalAlign=top;align=center;html=1;fontSize=12;fontStyle=0;aspect=fixed;pointerEvents=1;shape=mxgraph.aws4.endpoints;" parent="BCFTEfsaZ7yOC3XTp4j1-10" vertex="1">
                    <mxGeometry x="60" y="27" width="30" height="30" as="geometry"/>
                </mxCell>
                <mxCell id="BCFTEfsaZ7yOC3XTp4j1-13" style="edgeStyle=none;html=1;dashed=1;" parent="BCFTEfsaZ7yOC3XTp4j1-10" source="BCFTEfsaZ7yOC3XTp4j1-11" edge="1">
                    <mxGeometry relative="1" as="geometry">
                        <mxPoint x="140" y="42" as="targetPoint"/>
                    </mxGeometry>
                </mxCell>
                <mxCell id="1" value="ENI" style="sketch=0;outlineConnect=0;fontColor=#232F3E;gradientColor=none;fillColor=#4D27AA;strokeColor=none;dashed=0;verticalLabelPosition=bottom;verticalAlign=top;align=center;html=1;fontSize=12;fontStyle=0;aspect=fixed;pointerEvents=1;shape=mxgraph.aws4.elastic_network_interface;" parent="BCFTEfsaZ7yOC3XTp4j1-10" vertex="1">
                    <mxGeometry x="139.5" y="27" width="30" height="30" as="geometry"/>
                </mxCell>
                <mxCell id="BCFTEfsaZ7yOC3XTp4j1-14" value="Private subnet" style="points=[[0,0],[0.25,0],[0.5,0],[0.75,0],[1,0],[1,0.25],[1,0.5],[1,0.75],[1,1],[0.75,1],[0.5,1],[0.25,1],[0,1],[0,0.75],[0,0.5],[0,0.25]];outlineConnect=0;gradientColor=none;html=1;whiteSpace=wrap;fontSize=12;fontStyle=0;container=1;pointerEvents=0;collapsible=0;recursiveResize=0;shape=mxgraph.aws4.group;grIcon=mxgraph.aws4.group_security_group;grStroke=0;strokeColor=#147EBA;fillColor=#E6F2F8;verticalAlign=top;align=left;spacingLeft=30;fontColor=#147EBA;dashed=0;" parent="BCFTEfsaZ7yOC3XTp4j1-1" vertex="1">
                    <mxGeometry x="430" y="400" width="180" height="80" as="geometry"/>
                </mxCell>
                <mxCell id="0" value="ENI" style="sketch=0;outlineConnect=0;fontColor=#232F3E;gradientColor=none;fillColor=#4D27AA;strokeColor=none;dashed=0;verticalLabelPosition=bottom;verticalAlign=top;align=center;html=1;fontSize=12;fontStyle=0;aspect=fixed;pointerEvents=1;shape=mxgraph.aws4.elastic_network_interface;" parent="BCFTEfsaZ7yOC3XTp4j1-14" vertex="1">
                    <mxGeometry x="140" y="25" width="30" height="30" as="geometry"/>
                </mxCell>
                <mxCell id="BCFTEfsaZ7yOC3XTp4j1-16" style="edgeStyle=orthogonalEdgeStyle;html=1;dashed=1;" parent="BCFTEfsaZ7yOC3XTp4j1-1" source="BCFTEfsaZ7yOC3XTp4j1-11" edge="1">
                    <mxGeometry relative="1" as="geometry">
                        <Array as="points">
                            <mxPoint x="540" y="312"/>
                            <mxPoint x="540" y="180"/>
                        </Array>
                        <mxPoint x="570" y="180" as="targetPoint"/>
                    </mxGeometry>
                </mxCell>
                <mxCell id="BCFTEfsaZ7yOC3XTp4j1-17" style="edgeStyle=orthogonalEdgeStyle;html=1;dashed=1;" parent="BCFTEfsaZ7yOC3XTp4j1-1" source="BCFTEfsaZ7yOC3XTp4j1-11" edge="1">
                    <mxGeometry relative="1" as="geometry">
                        <Array as="points">
                            <mxPoint x="540" y="310"/>
                            <mxPoint x="540" y="442"/>
                        </Array>
                        <mxPoint x="570" y="442" as="targetPoint"/>
                    </mxGeometry>
                </mxCell>
                <mxCell id="BCFTEfsaZ7yOC3XTp4j1-21" value="VPC" style="points=[[0,0],[0.25,0],[0.5,0],[0.75,0],[1,0],[1,0.25],[1,0.5],[1,0.75],[1,1],[0.75,1],[0.5,1],[0.25,1],[0,1],[0,0.75],[0,0.5],[0,0.25]];outlineConnect=0;gradientColor=none;html=1;whiteSpace=wrap;fontSize=12;fontStyle=0;container=0;pointerEvents=0;collapsible=0;recursiveResize=0;shape=mxgraph.aws4.group;grIcon=mxgraph.aws4.group_vpc;strokeColor=#248814;fillColor=none;verticalAlign=top;align=left;spacingLeft=30;fontColor=#AAB7B8;dashed=0;" parent="BCFTEfsaZ7yOC3XTp4j1-1" vertex="1">
                    <mxGeometry x="690" y="80" width="260" height="440" as="geometry"/>
                </mxCell>
                <mxCell id="BCFTEfsaZ7yOC3XTp4j1-22" value="Private subnet" style="points=[[0,0],[0.25,0],[0.5,0],[0.75,0],[1,0],[1,0.25],[1,0.5],[1,0.75],[1,1],[0.75,1],[0.5,1],[0.25,1],[0,1],[0,0.75],[0,0.5],[0,0.25]];outlineConnect=0;gradientColor=none;html=1;whiteSpace=wrap;fontSize=12;fontStyle=0;container=1;pointerEvents=0;collapsible=0;recursiveResize=0;shape=mxgraph.aws4.group;grIcon=mxgraph.aws4.group_security_group;grStroke=0;strokeColor=#147EBA;fillColor=#E6F2F8;verticalAlign=top;align=left;spacingLeft=30;fontColor=#147EBA;dashed=0;" parent="BCFTEfsaZ7yOC3XTp4j1-1" vertex="1">
                    <mxGeometry x="730" y="140" width="180" height="80" as="geometry"/>
                </mxCell>
                <mxCell id="BCFTEfsaZ7yOC3XTp4j1-24" value="Private subnet" style="points=[[0,0],[0.25,0],[0.5,0],[0.75,0],[1,0],[1,0.25],[1,0.5],[1,0.75],[1,1],[0.75,1],[0.5,1],[0.25,1],[0,1],[0,0.75],[0,0.5],[0,0.25]];outlineConnect=0;gradientColor=none;html=1;whiteSpace=wrap;fontSize=12;fontStyle=0;container=1;pointerEvents=0;collapsible=0;recursiveResize=0;shape=mxgraph.aws4.group;grIcon=mxgraph.aws4.group_security_group;grStroke=0;strokeColor=#147EBA;fillColor=#E6F2F8;verticalAlign=top;align=left;spacingLeft=30;fontColor=#147EBA;dashed=0;" parent="BCFTEfsaZ7yOC3XTp4j1-1" vertex="1">
                    <mxGeometry x="730" y="270" width="180" height="80" as="geometry"/>
                </mxCell>
                <mxCell id="4" value="ENI" style="sketch=0;outlineConnect=0;fontColor=#232F3E;gradientColor=none;fillColor=#4D27AA;strokeColor=none;dashed=0;verticalLabelPosition=bottom;verticalAlign=top;align=center;html=1;fontSize=12;fontStyle=0;aspect=fixed;pointerEvents=1;shape=mxgraph.aws4.elastic_network_interface;" parent="BCFTEfsaZ7yOC3XTp4j1-24" vertex="1">
                    <mxGeometry x="70" y="28" width="30" height="30" as="geometry"/>
                </mxCell>
                <mxCell id="BCFTEfsaZ7yOC3XTp4j1-26" value="Private subnet" style="points=[[0,0],[0.25,0],[0.5,0],[0.75,0],[1,0],[1,0.25],[1,0.5],[1,0.75],[1,1],[0.75,1],[0.5,1],[0.25,1],[0,1],[0,0.75],[0,0.5],[0,0.25]];outlineConnect=0;gradientColor=none;html=1;whiteSpace=wrap;fontSize=12;fontStyle=0;container=1;pointerEvents=0;collapsible=0;recursiveResize=0;shape=mxgraph.aws4.group;grIcon=mxgraph.aws4.group_security_group;grStroke=0;strokeColor=#147EBA;fillColor=#E6F2F8;verticalAlign=top;align=left;spacingLeft=30;fontColor=#147EBA;dashed=0;" parent="BCFTEfsaZ7yOC3XTp4j1-1" vertex="1">
                    <mxGeometry x="730" y="400" width="180" height="80" as="geometry"/>
                </mxCell>
                <mxCell id="3" value="ENI" style="sketch=0;outlineConnect=0;fontColor=#232F3E;gradientColor=none;fillColor=#4D27AA;strokeColor=none;dashed=0;verticalLabelPosition=bottom;verticalAlign=top;align=center;html=1;fontSize=12;fontStyle=0;aspect=fixed;pointerEvents=1;shape=mxgraph.aws4.elastic_network_interface;" parent="BCFTEfsaZ7yOC3XTp4j1-26" vertex="1">
                    <mxGeometry x="70" y="25" width="30" height="30" as="geometry"/>
                </mxCell>
                <mxCell id="BCFTEfsaZ7yOC3XTp4j1-28" style="edgeStyle=none;html=1;startArrow=none;" parent="BCFTEfsaZ7yOC3XTp4j1-1" source="BCFTEfsaZ7yOC3XTp4j1-33" edge="1">
                    <mxGeometry relative="1" as="geometry">
                        <mxPoint x="800" y="312.2459016393443" as="targetPoint"/>
                    </mxGeometry>
                </mxCell>
                <mxCell id="BCFTEfsaZ7yOC3XTp4j1-29" style="edgeStyle=orthogonalEdgeStyle;html=1;" parent="BCFTEfsaZ7yOC3XTp4j1-1" target="BCFTEfsaZ7yOC3XTp4j1-33" edge="1">
                    <mxGeometry relative="1" as="geometry">
                        <Array as="points">
                            <mxPoint x="630" y="180"/>
                            <mxPoint x="630" y="313"/>
                        </Array>
                        <mxPoint x="600" y="180" as="sourcePoint"/>
                    </mxGeometry>
                </mxCell>
                <mxCell id="BCFTEfsaZ7yOC3XTp4j1-30" style="edgeStyle=orthogonalEdgeStyle;html=1;" parent="BCFTEfsaZ7yOC3XTp4j1-1" target="BCFTEfsaZ7yOC3XTp4j1-33" edge="1">
                    <mxGeometry relative="1" as="geometry">
                        <Array as="points">
                            <mxPoint x="630" y="442"/>
                            <mxPoint x="630" y="313"/>
                        </Array>
                        <mxPoint x="600" y="442" as="sourcePoint"/>
                    </mxGeometry>
                </mxCell>
                <mxCell id="BCFTEfsaZ7yOC3XTp4j1-31" style="edgeStyle=orthogonalEdgeStyle;html=1;" parent="BCFTEfsaZ7yOC3XTp4j1-1" source="BCFTEfsaZ7yOC3XTp4j1-33" edge="1">
                    <mxGeometry relative="1" as="geometry">
                        <Array as="points">
                            <mxPoint x="780" y="313"/>
                            <mxPoint x="780" y="442"/>
                        </Array>
                        <mxPoint x="800" y="442" as="targetPoint"/>
                    </mxGeometry>
                </mxCell>
                <mxCell id="BCFTEfsaZ7yOC3XTp4j1-32" style="edgeStyle=orthogonalEdgeStyle;html=1;" parent="BCFTEfsaZ7yOC3XTp4j1-1" source="BCFTEfsaZ7yOC3XTp4j1-33" edge="1">
                    <mxGeometry relative="1" as="geometry">
                        <Array as="points">
                            <mxPoint x="780" y="313"/>
                            <mxPoint x="780" y="180"/>
                        </Array>
                        <mxPoint x="800" y="180" as="targetPoint"/>
                    </mxGeometry>
                </mxCell>
                <mxCell id="BCFTEfsaZ7yOC3XTp4j1-33" value="NLB" style="sketch=0;outlineConnect=0;fontColor=#232F3E;gradientColor=none;fillColor=#4D27AA;strokeColor=none;dashed=0;verticalLabelPosition=bottom;verticalAlign=top;align=center;html=1;fontSize=12;fontStyle=0;aspect=fixed;pointerEvents=1;shape=mxgraph.aws4.network_load_balancer;" parent="BCFTEfsaZ7yOC3XTp4j1-1" vertex="1">
                    <mxGeometry x="702" y="298" width="28" height="28" as="geometry"/>
                </mxCell>
                <mxCell id="BCFTEfsaZ7yOC3XTp4j1-34" value="" style="edgeStyle=none;html=1;endArrow=none;startArrow=none;" parent="BCFTEfsaZ7yOC3XTp4j1-1" source="BCFTEfsaZ7yOC3XTp4j1-35" target="BCFTEfsaZ7yOC3XTp4j1-33" edge="1">
                    <mxGeometry relative="1" as="geometry">
                        <mxPoint x="600" y="312" as="sourcePoint"/>
                        <mxPoint x="770" y="312" as="targetPoint"/>
                    </mxGeometry>
                </mxCell>
                <mxCell id="BCFTEfsaZ7yOC3XTp4j1-37" value="" style="shape=flexArrow;endArrow=classic;html=1;" parent="BCFTEfsaZ7yOC3XTp4j1-1" edge="1">
                    <mxGeometry width="50" height="50" relative="1" as="geometry">
                        <mxPoint x="280" y="570" as="sourcePoint"/>
                        <mxPoint x="840" y="570" as="targetPoint"/>
                    </mxGeometry>
                </mxCell>
                <mxCell id="BCFTEfsaZ7yOC3XTp4j1-38" value="オンプレ環境からAWS上の新システムへの上り通信" style="edgeLabel;html=1;align=center;verticalAlign=middle;resizable=0;points=[];" parent="BCFTEfsaZ7yOC3XTp4j1-37" vertex="1" connectable="0">
                    <mxGeometry x="0.7143" y="1" relative="1" as="geometry">
                        <mxPoint x="-220" y="-19" as="offset"/>
                    </mxGeometry>
                </mxCell>
                <mxCell id="BCFTEfsaZ7yOC3XTp4j1-6" value="DirectConnect" style="sketch=0;points=[[0,0,0],[0.25,0,0],[0.5,0,0],[0.75,0,0],[1,0,0],[0,1,0],[0.25,1,0],[0.5,1,0],[0.75,1,0],[1,1,0],[0,0.25,0],[0,0.5,0],[0,0.75,0],[1,0.25,0],[1,0.5,0],[1,0.75,0]];outlineConnect=0;fontColor=#232F3E;gradientColor=#945DF2;gradientDirection=north;fillColor=#5A30B5;strokeColor=#ffffff;dashed=0;verticalLabelPosition=bottom;verticalAlign=top;align=center;html=1;fontSize=12;fontStyle=0;aspect=fixed;shape=mxgraph.aws4.resourceIcon;resIcon=mxgraph.aws4.direct_connect;" parent="BCFTEfsaZ7yOC3XTp4j1-1" vertex="1">
                    <mxGeometry x="351" y="292" width="39" height="39" as="geometry"/>
                </mxCell>
                <mxCell id="gFsK34k69OLk71-0nfJo-6" value="" style="edgeStyle=orthogonalEdgeStyle;html=1;startArrow=none;endArrow=none;" parent="BCFTEfsaZ7yOC3XTp4j1-1" source="gFsK34k69OLk71-0nfJo-4" target="BCFTEfsaZ7yOC3XTp4j1-6" edge="1">
                    <mxGeometry relative="1" as="geometry">
                        <mxPoint x="305.25619151590786" y="312" as="sourcePoint"/>
                        <mxPoint x="490" y="312" as="targetPoint"/>
                    </mxGeometry>
                </mxCell>
                <mxCell id="BCFTEfsaZ7yOC3XTp4j1-35" value="PrivateLink" style="sketch=0;points=[[0,0,0],[0.25,0,0],[0.5,0,0],[0.75,0,0],[1,0,0],[0,1,0],[0.25,1,0],[0.5,1,0],[0.75,1,0],[1,1,0],[0,0.25,0],[0,0.5,0],[0,0.75,0],[1,0.25,0],[1,0.5,0],[1,0.75,0]];outlineConnect=0;fontColor=#232F3E;gradientColor=#945DF2;gradientDirection=north;fillColor=#5A30B5;strokeColor=#ffffff;dashed=0;verticalLabelPosition=bottom;verticalAlign=top;align=center;html=1;fontSize=12;fontStyle=0;aspect=fixed;shape=mxgraph.aws4.resourceIcon;resIcon=mxgraph.aws4.vpc_privatelink;" parent="BCFTEfsaZ7yOC3XTp4j1-1" vertex="1">
                    <mxGeometry x="650" y="292" width="40" height="40" as="geometry"/>
                </mxCell>
                <mxCell id="gFsK34k69OLk71-0nfJo-7" value="" style="edgeStyle=none;html=1;endArrow=none;" parent="BCFTEfsaZ7yOC3XTp4j1-1" target="BCFTEfsaZ7yOC3XTp4j1-35" edge="1">
                    <mxGeometry relative="1" as="geometry">
                        <mxPoint x="600" y="312" as="sourcePoint"/>
                        <mxPoint x="740" y="312.9171597633135" as="targetPoint"/>
                    </mxGeometry>
                </mxCell>
                <mxCell id="gFsK34k69OLk71-0nfJo-3" style="edgeStyle=orthogonalEdgeStyle;html=1;startArrow=none;" parent="BCFTEfsaZ7yOC3XTp4j1-1" source="BCFTEfsaZ7yOC3XTp4j1-6" target="BCFTEfsaZ7yOC3XTp4j1-11" edge="1">
                    <mxGeometry relative="1" as="geometry"/>
                </mxCell>
                <mxCell id="5" value="ENI" style="sketch=0;outlineConnect=0;fontColor=#232F3E;gradientColor=none;fillColor=#4D27AA;strokeColor=none;dashed=0;verticalLabelPosition=bottom;verticalAlign=top;align=center;html=1;fontSize=12;fontStyle=0;aspect=fixed;pointerEvents=1;shape=mxgraph.aws4.elastic_network_interface;" parent="BCFTEfsaZ7yOC3XTp4j1-1" vertex="1">
                    <mxGeometry x="800" y="165" width="30" height="30" as="geometry"/>
                </mxCell>
            </root>
        </mxGraphModel>
    </diagram>
</mxfile>